<mxfile host="app.diagrams.net" modified="2020-09-07T11:59:05.165Z" agent="5.0 (Windows NT 10.0; Win64; x64) AppleWebKit/537.36 (KHTML, like Gecko) Chrome/80.0.3987.132 Safari/537.36" etag="gn-oySWLW_9Z58WNH_px" version="13.6.6" type="github">
  <diagram id="vzioFBNHEk6Id1RTCtNG" name="Page-1">
    <mxGraphModel dx="981" dy="554" grid="1" gridSize="10" guides="1" tooltips="1" connect="1" arrows="1" fold="1" page="1" pageScale="1" pageWidth="850" pageHeight="1100" math="0" shadow="0">
      <root>
        <mxCell id="0" />
        <mxCell id="1" parent="0" />
        <mxCell id="OYXpN41Nhl739jVn25ul-1" value="Vadovybe" style="ellipse;whiteSpace=wrap;html=1;fillColor=#fff2cc;strokeColor=#d6b656;" vertex="1" parent="1">
          <mxGeometry x="365" y="240" width="120" height="80" as="geometry" />
        </mxCell>
        <mxCell id="OYXpN41Nhl739jVn25ul-2" value="Dealers" style="rounded=0;whiteSpace=wrap;html=1;fillColor=#d5e8d4;strokeColor=#82b366;" vertex="1" parent="1">
          <mxGeometry x="340" y="60" width="120" height="60" as="geometry" />
        </mxCell>
        <mxCell id="OYXpN41Nhl739jVn25ul-3" value="Customers" style="rounded=0;whiteSpace=wrap;html=1;fillColor=#d5e8d4;strokeColor=#82b366;" vertex="1" parent="1">
          <mxGeometry x="570" y="80" width="120" height="60" as="geometry" />
        </mxCell>
        <mxCell id="OYXpN41Nhl739jVn25ul-4" value="Bank" style="rounded=0;whiteSpace=wrap;html=1;fillColor=#d5e8d4;strokeColor=#82b366;" vertex="1" parent="1">
          <mxGeometry x="70" y="180" width="120" height="60" as="geometry" />
        </mxCell>
        <mxCell id="OYXpN41Nhl739jVn25ul-5" value="Suppliers" style="rounded=0;whiteSpace=wrap;html=1;fillColor=#d5e8d4;strokeColor=#82b366;" vertex="1" parent="1">
          <mxGeometry x="70" y="470" width="120" height="60" as="geometry" />
        </mxCell>
        <mxCell id="OYXpN41Nhl739jVn25ul-7" value="Product werehouse" style="ellipse;whiteSpace=wrap;html=1;fillColor=#fff2cc;strokeColor=#d6b656;" vertex="1" parent="1">
          <mxGeometry x="570" y="260" width="120" height="80" as="geometry" />
        </mxCell>
        <mxCell id="OYXpN41Nhl739jVn25ul-9" value="Accounting" style="ellipse;whiteSpace=wrap;html=1;fillColor=#fff2cc;strokeColor=#d6b656;" vertex="1" parent="1">
          <mxGeometry x="220" y="330" width="120" height="80" as="geometry" />
        </mxCell>
        <mxCell id="OYXpN41Nhl739jVn25ul-10" value="Manufacturing" style="ellipse;whiteSpace=wrap;html=1;fillColor=#fff2cc;strokeColor=#d6b656;" vertex="1" parent="1">
          <mxGeometry x="470" y="370" width="120" height="80" as="geometry" />
        </mxCell>
        <mxCell id="OYXpN41Nhl739jVn25ul-11" value="Supplies to werehouse" style="ellipse;whiteSpace=wrap;html=1;fillColor=#fff2cc;strokeColor=#d6b656;" vertex="1" parent="1">
          <mxGeometry x="290" y="450" width="120" height="80" as="geometry" />
        </mxCell>
        <mxCell id="OYXpN41Nhl739jVn25ul-18" value="" style="endArrow=classic;html=1;exitX=1;exitY=0.5;exitDx=0;exitDy=0;entryX=0;entryY=0.5;entryDx=0;entryDy=0;" edge="1" parent="1" source="OYXpN41Nhl739jVn25ul-5" target="OYXpN41Nhl739jVn25ul-11">
          <mxGeometry width="50" height="50" relative="1" as="geometry">
            <mxPoint x="210" y="510" as="sourcePoint" />
            <mxPoint x="260" y="460" as="targetPoint" />
            <Array as="points">
              <mxPoint x="240" y="490" />
            </Array>
          </mxGeometry>
        </mxCell>
        <mxCell id="OYXpN41Nhl739jVn25ul-19" value="Supplies_S" style="edgeLabel;html=1;align=center;verticalAlign=middle;resizable=0;points=[];" vertex="1" connectable="0" parent="OYXpN41Nhl739jVn25ul-18">
          <mxGeometry x="-0.2388" y="-2" relative="1" as="geometry">
            <mxPoint y="-1" as="offset" />
          </mxGeometry>
        </mxCell>
        <mxCell id="OYXpN41Nhl739jVn25ul-20" value="" style="endArrow=classic;html=1;exitX=1;exitY=0.3;exitDx=0;exitDy=0;exitPerimeter=0;entryX=0.075;entryY=0.738;entryDx=0;entryDy=0;entryPerimeter=0;" edge="1" parent="1" source="OYXpN41Nhl739jVn25ul-11" target="OYXpN41Nhl739jVn25ul-10">
          <mxGeometry width="50" height="50" relative="1" as="geometry">
            <mxPoint x="420" y="470" as="sourcePoint" />
            <mxPoint x="470" y="420" as="targetPoint" />
          </mxGeometry>
        </mxCell>
        <mxCell id="OYXpN41Nhl739jVn25ul-21" value="Supplies_M" style="edgeLabel;html=1;align=center;verticalAlign=middle;resizable=0;points=[];" vertex="1" connectable="0" parent="OYXpN41Nhl739jVn25ul-20">
          <mxGeometry x="-0.3393" y="-2" relative="1" as="geometry">
            <mxPoint as="offset" />
          </mxGeometry>
        </mxCell>
        <mxCell id="OYXpN41Nhl739jVn25ul-22" value="" style="endArrow=classic;html=1;exitX=0.925;exitY=0.15;exitDx=0;exitDy=0;exitPerimeter=0;" edge="1" parent="1" source="OYXpN41Nhl739jVn25ul-10" target="OYXpN41Nhl739jVn25ul-7">
          <mxGeometry width="50" height="50" relative="1" as="geometry">
            <mxPoint x="605" y="395" as="sourcePoint" />
            <mxPoint x="655" y="345" as="targetPoint" />
          </mxGeometry>
        </mxCell>
        <mxCell id="OYXpN41Nhl739jVn25ul-33" value="Product" style="edgeLabel;html=1;align=center;verticalAlign=middle;resizable=0;points=[];" vertex="1" connectable="0" parent="OYXpN41Nhl739jVn25ul-22">
          <mxGeometry x="-0.396" y="-1" relative="1" as="geometry">
            <mxPoint as="offset" />
          </mxGeometry>
        </mxCell>
        <mxCell id="OYXpN41Nhl739jVn25ul-23" value="" style="endArrow=classic;html=1;exitX=1;exitY=0.313;exitDx=0;exitDy=0;exitPerimeter=0;entryX=0.233;entryY=0.95;entryDx=0;entryDy=0;entryPerimeter=0;" edge="1" parent="1" source="OYXpN41Nhl739jVn25ul-9" target="OYXpN41Nhl739jVn25ul-1">
          <mxGeometry width="50" height="50" relative="1" as="geometry">
            <mxPoint x="350" y="360" as="sourcePoint" />
            <mxPoint x="400" y="310" as="targetPoint" />
          </mxGeometry>
        </mxCell>
        <mxCell id="OYXpN41Nhl739jVn25ul-35" value="Details in" style="edgeLabel;html=1;align=center;verticalAlign=middle;resizable=0;points=[];" vertex="1" connectable="0" parent="OYXpN41Nhl739jVn25ul-23">
          <mxGeometry x="0.3325" y="-1" relative="1" as="geometry">
            <mxPoint as="offset" />
          </mxGeometry>
        </mxCell>
        <mxCell id="OYXpN41Nhl739jVn25ul-24" value="" style="endArrow=classic;html=1;entryX=0.692;entryY=0.038;entryDx=0;entryDy=0;entryPerimeter=0;exitX=0.025;exitY=0.338;exitDx=0;exitDy=0;exitPerimeter=0;" edge="1" parent="1" source="OYXpN41Nhl739jVn25ul-1">
          <mxGeometry width="50" height="50" relative="1" as="geometry">
            <mxPoint x="351.96" y="276.96" as="sourcePoint" />
            <mxPoint x="289.99999999999994" y="329.99999999999994" as="targetPoint" />
          </mxGeometry>
        </mxCell>
        <mxCell id="OYXpN41Nhl739jVn25ul-36" value="Details Out" style="edgeLabel;html=1;align=center;verticalAlign=middle;resizable=0;points=[];" vertex="1" connectable="0" parent="OYXpN41Nhl739jVn25ul-24">
          <mxGeometry x="-0.4282" y="1" relative="1" as="geometry">
            <mxPoint x="-16.06" y="13.97" as="offset" />
          </mxGeometry>
        </mxCell>
        <mxCell id="OYXpN41Nhl739jVn25ul-25" value="" style="endArrow=classic;html=1;entryX=1;entryY=1;entryDx=0;entryDy=0;exitX=0.367;exitY=-0.012;exitDx=0;exitDy=0;exitPerimeter=0;" edge="1" parent="1" source="OYXpN41Nhl739jVn25ul-9" target="OYXpN41Nhl739jVn25ul-4">
          <mxGeometry width="50" height="50" relative="1" as="geometry">
            <mxPoint x="310.98" y="230" as="sourcePoint" />
            <mxPoint x="249.01999999999998" y="283.03999999999996" as="targetPoint" />
          </mxGeometry>
        </mxCell>
        <mxCell id="OYXpN41Nhl739jVn25ul-37" value="Payment back" style="edgeLabel;html=1;align=center;verticalAlign=middle;resizable=0;points=[];" vertex="1" connectable="0" parent="OYXpN41Nhl739jVn25ul-25">
          <mxGeometry x="-0.2892" y="1" relative="1" as="geometry">
            <mxPoint as="offset" />
          </mxGeometry>
        </mxCell>
        <mxCell id="OYXpN41Nhl739jVn25ul-26" value="" style="endArrow=classic;html=1;exitX=0.65;exitY=1.067;exitDx=0;exitDy=0;exitPerimeter=0;entryX=0.092;entryY=0.163;entryDx=0;entryDy=0;entryPerimeter=0;" edge="1" parent="1" source="OYXpN41Nhl739jVn25ul-4" target="OYXpN41Nhl739jVn25ul-9">
          <mxGeometry width="50" height="50" relative="1" as="geometry">
            <mxPoint x="108.71000000000001" y="319.99999999999994" as="sourcePoint" />
            <mxPoint x="151.28359312880727" y="273.24427124746165" as="targetPoint" />
          </mxGeometry>
        </mxCell>
        <mxCell id="OYXpN41Nhl739jVn25ul-38" value="Payment in" style="edgeLabel;html=1;align=center;verticalAlign=middle;resizable=0;points=[];" vertex="1" connectable="0" parent="OYXpN41Nhl739jVn25ul-26">
          <mxGeometry x="-0.1997" y="1" relative="1" as="geometry">
            <mxPoint as="offset" />
          </mxGeometry>
        </mxCell>
        <mxCell id="OYXpN41Nhl739jVn25ul-27" value="" style="endArrow=classic;html=1;entryX=0;entryY=1;entryDx=0;entryDy=0;exitX=1;exitY=0;exitDx=0;exitDy=0;" edge="1" parent="1" source="OYXpN41Nhl739jVn25ul-1" target="OYXpN41Nhl739jVn25ul-3">
          <mxGeometry width="50" height="50" relative="1" as="geometry">
            <mxPoint x="480" y="250" as="sourcePoint" />
            <mxPoint x="530" y="200" as="targetPoint" />
          </mxGeometry>
        </mxCell>
        <mxCell id="OYXpN41Nhl739jVn25ul-40" value="Details / Contract" style="edgeLabel;html=1;align=center;verticalAlign=middle;resizable=0;points=[];" vertex="1" connectable="0" parent="OYXpN41Nhl739jVn25ul-27">
          <mxGeometry x="0.5058" y="1" relative="1" as="geometry">
            <mxPoint as="offset" />
          </mxGeometry>
        </mxCell>
        <mxCell id="OYXpN41Nhl739jVn25ul-28" value="" style="endArrow=classic;html=1;entryX=0.5;entryY=1;entryDx=0;entryDy=0;exitX=0.408;exitY=-0.037;exitDx=0;exitDy=0;exitPerimeter=0;" edge="1" parent="1" source="OYXpN41Nhl739jVn25ul-1" target="OYXpN41Nhl739jVn25ul-2">
          <mxGeometry width="50" height="50" relative="1" as="geometry">
            <mxPoint x="363.71640687119276" y="201.71572875253787" as="sourcePoint" />
            <mxPoint x="436.29" y="150" as="targetPoint" />
          </mxGeometry>
        </mxCell>
        <mxCell id="OYXpN41Nhl739jVn25ul-39" value="Details / contract" style="edgeLabel;html=1;align=center;verticalAlign=middle;resizable=0;points=[];" vertex="1" connectable="0" parent="OYXpN41Nhl739jVn25ul-28">
          <mxGeometry x="-0.1678" y="-3" relative="1" as="geometry">
            <mxPoint as="offset" />
          </mxGeometry>
        </mxCell>
        <mxCell id="OYXpN41Nhl739jVn25ul-29" value="" style="endArrow=classic;html=1;entryX=0.975;entryY=0.663;entryDx=0;entryDy=0;exitX=0;exitY=0.5;exitDx=0;exitDy=0;entryPerimeter=0;" edge="1" parent="1" target="OYXpN41Nhl739jVn25ul-9">
          <mxGeometry width="50" height="50" relative="1" as="geometry">
            <mxPoint x="570" y="320" as="sourcePoint" />
            <mxPoint x="340" y="390" as="targetPoint" />
          </mxGeometry>
        </mxCell>
        <mxCell id="OYXpN41Nhl739jVn25ul-34" value="Details where it was delivered" style="edgeLabel;html=1;align=center;verticalAlign=middle;resizable=0;points=[];" vertex="1" connectable="0" parent="OYXpN41Nhl739jVn25ul-29">
          <mxGeometry x="-0.1052" relative="1" as="geometry">
            <mxPoint as="offset" />
          </mxGeometry>
        </mxCell>
        <mxCell id="OYXpN41Nhl739jVn25ul-30" value="" style="endArrow=classic;html=1;entryX=0.617;entryY=1.013;entryDx=0;entryDy=0;entryPerimeter=0;exitX=0.442;exitY=-0.025;exitDx=0;exitDy=0;exitPerimeter=0;" edge="1" parent="1" source="OYXpN41Nhl739jVn25ul-11" target="OYXpN41Nhl739jVn25ul-9">
          <mxGeometry width="50" height="50" relative="1" as="geometry">
            <mxPoint x="400" y="440" as="sourcePoint" />
            <mxPoint x="450" y="390" as="targetPoint" />
          </mxGeometry>
        </mxCell>
        <mxCell id="OYXpN41Nhl739jVn25ul-43" value="Bills and details" style="edgeLabel;html=1;align=center;verticalAlign=middle;resizable=0;points=[];" vertex="1" connectable="0" parent="OYXpN41Nhl739jVn25ul-30">
          <mxGeometry x="-0.5038" y="1" relative="1" as="geometry">
            <mxPoint as="offset" />
          </mxGeometry>
        </mxCell>
        <mxCell id="OYXpN41Nhl739jVn25ul-31" value="" style="endArrow=classic;html=1;entryX=0.592;entryY=1.05;entryDx=0;entryDy=0;entryPerimeter=0;exitX=0.5;exitY=0;exitDx=0;exitDy=0;" edge="1" parent="1" source="OYXpN41Nhl739jVn25ul-7" target="OYXpN41Nhl739jVn25ul-3">
          <mxGeometry width="50" height="50" relative="1" as="geometry">
            <mxPoint x="660" y="250" as="sourcePoint" />
            <mxPoint x="710" y="200" as="targetPoint" />
          </mxGeometry>
        </mxCell>
        <mxCell id="OYXpN41Nhl739jVn25ul-42" value="Final product" style="edgeLabel;html=1;align=center;verticalAlign=middle;resizable=0;points=[];" vertex="1" connectable="0" parent="OYXpN41Nhl739jVn25ul-31">
          <mxGeometry x="-0.1819" y="2" relative="1" as="geometry">
            <mxPoint as="offset" />
          </mxGeometry>
        </mxCell>
        <mxCell id="OYXpN41Nhl739jVn25ul-32" value="" style="endArrow=classic;html=1;entryX=0.75;entryY=1;entryDx=0;entryDy=0;" edge="1" parent="1" source="OYXpN41Nhl739jVn25ul-7" target="OYXpN41Nhl739jVn25ul-2">
          <mxGeometry width="50" height="50" relative="1" as="geometry">
            <mxPoint x="548.96" y="270" as="sourcePoint" />
            <mxPoint x="530" y="213" as="targetPoint" />
          </mxGeometry>
        </mxCell>
        <mxCell id="OYXpN41Nhl739jVn25ul-41" value="Final product" style="edgeLabel;html=1;align=center;verticalAlign=middle;resizable=0;points=[];" vertex="1" connectable="0" parent="OYXpN41Nhl739jVn25ul-32">
          <mxGeometry x="-0.5449" y="-2" relative="1" as="geometry">
            <mxPoint as="offset" />
          </mxGeometry>
        </mxCell>
      </root>
    </mxGraphModel>
  </diagram>
</mxfile>
